<?xml version="1.0" encoding="UTF-8" standalone="no"?>
<!-- Created with Inkscape (http://www.inkscape.org/) -->

<svg
   width="63.614693mm"
   height="39.314358mm"
   viewBox="0 0 63.614693 39.314358"
   version="1.1"
   id="svg1"
   xml:space="preserve"
   inkscape:version="1.3.2 (091e20e, 2023-11-25, custom)"
   sodipodi:docname="canvaz.svg"
   xmlns:inkscape="http://www.inkscape.org/namespaces/inkscape"
   xmlns:sodipodi="http://sodipodi.sourceforge.net/DTD/sodipodi-0.dtd"
   xmlns="http://www.w3.org/2000/svg"
   xmlns:svg="http://www.w3.org/2000/svg"><sodipodi:namedview
     id="namedview1"
     pagecolor="#ffffff"
     bordercolor="#000000"
     borderopacity="0.25"
     inkscape:showpageshadow="2"
     inkscape:pageopacity="0.0"
     inkscape:pagecheckerboard="0"
     inkscape:deskcolor="#d1d1d1"
     inkscape:document-units="mm"
     inkscape:zoom="1"
     inkscape:cx="390"
     inkscape:cy="324.5"
     inkscape:window-width="1920"
     inkscape:window-height="1009"
     inkscape:window-x="-8"
     inkscape:window-y="-8"
     inkscape:window-maximized="1"
     inkscape:current-layer="layer1" /><defs
     id="defs1" /><g
     inkscape:label="Layer 1"
     inkscape:groupmode="layer"
     id="layer1"
     transform="translate(-36.705361,-34.039596)"><g
       id="g5"
       transform="translate(-4.1159507,-16.650891)"><rect
         style="fill:#80b3ff;fill-opacity:1;stroke-width:1.5;stroke-linecap:round;stroke-linejoin:round"
         id="rect1"
         width="63.611515"
         height="39.314079"
         x="40.821884"
         y="50.690487"
         ry="2.7698555" /><path
         id="path4"
         style="fill:#008000;fill-opacity:1;stroke-width:1.5;stroke-linecap:round;stroke-linejoin:round"
         d="M 67.737467,64.360413 C 62.056028,63.9022 40.822314,79.333142 40.822314,79.333142 l -10e-4,8.058423 c 0.131563,1.567722 1.205175,2.52004 2.66547,2.61276 h 42.130245 l 5.17e-4,5.17e-4 16.023824,-0.0052 c 1.53331,0.04813 2.88889,-1.304487 2.78949,-2.728515 l 0.002,-11.080461 c 0,0 -9.165562,-9.486022 -14.673001,-9.64799 -5.50744,-0.161968 -13.03383,7.416602 -13.03383,7.416602 l 0.0708,0.127641 c -3.25325,-5.112703 -6.711467,-9.537176 -9.059396,-9.726538 z"
         sodipodi:nodetypes="sccccccccsccs" /><circle
         style="fill:#ffcc00;fill-opacity:1;stroke-width:1.75254;stroke-linecap:round;stroke-linejoin:round"
         id="path5"
         cx="50.20274"
         cy="58.856495"
         r="3.2458467" /></g></g></svg>
